# xmcd
#
# Track frame offsets:
#	150
#	16605
#	33613
#	51303
#	68841
#	86921
#	102839
#	117973
#	133839
#	152046
#	165381
#	183418
#	200382
#	217192
#
# Disc length: 3151 seconds
#
# Revision: 3
# Processed by: cddbd v1.5.2PL0 Copyright (c) Steve Scherf et al.
# Submitted via: EasyCDDAExtractor 11.9.9.666
#
DISCID=c30c4d0e
DTITLE=COUNTRY - 2003  VOL 2  HITS
DYEAR=2003
DGENRE=Country
TTITLE0=THAT´D BE ALRIGHT (ALAN JACKSON)
TTITLE1=ROCK YOU BABY (TOBY KEITH)
TTITLE2=CONCRETE ANGEL (MARTINA MCBRIDE)
TTITLE3=RAINING ON SUNDAY (KEITH URBAN)
TTITLE4=BIG STAR (KENNY CHESNEY)
TTITLE5=I BELIEVE (DIAMOND RIO)
TTITLE6=19 SOMETHIN´ (MARK WILLS)
TTITLE7=THIS IS GOD (PHIL VASSAR)
TTITLE8=THE LOVE STORY (JEFF BATES)
TTITLE9=LOVE WON´T LET ME (TAMMY COCHRAN)
TTITLE10=SPEED (MONTGOMERY GENTRY)
TTITLE11=THERE´S MORE TO ME THAN YOU (JESSICA ANDREWS)
TTITLE12=WHAT A BEAUTIFUL DAY (CHRIS CAGLE)
TTITLE13=COUNTRY AIN´T COUNTRY (TRAVIS TRITT)
EXTD=
EXTT0=
EXTT1=
EXTT2=
EXTT3=
EXTT4=
EXTT5=
EXTT6=
EXTT7=
EXTT8=
EXTT9=
EXTT10=
EXTT11=
EXTT12=
EXTT13=
PLAYORDER=
